# File generated by ImageToStl.com - Free Image and 3D model conversion tools

mtllib N00031.mtl

o obj1
v 0.71804953 0.89971273 1.32985659
v 0.71804953 0.89971273 1.42985659
v 0.71804953 0.89654273 1.32985659
v 0.71804953 0.89654273 1.42985659
v 0.69899953 0.89971273 1.32985659
v 0.69899953 0.89654273 1.32985659
v 0.69899953 0.89971273 1.42985659
v 0.69899953 0.89654273 1.42985659
vn 1 0 -0
vn 0 0 -1
vn -1 0 0
vn 0 0 1
vn 0 1 0
vn 0 -1 0
usemtl mat0
f 1//1 2//1 3//1
f 3//1 2//1 4//1
f 5//2 1//2 6//2
f 6//2 1//2 3//2
f 7//3 5//3 8//3
f 8//3 5//3 6//3
f 2//4 7//4 4//4
f 4//4 7//4 8//4
f 5//5 7//5 1//5
f 1//5 7//5 2//5
f 8//6 6//6 4//6
f 4//6 6//6 3//6
# Vertices: 8, normals: 6, texture coordinates: 0, faces: 12

o obj2
v 0.69452454 0.94971268 1.37026893
v 0.70315454 0.94971268 1.37026893
v 0.69452454 0.94971268 1.36400661
v 0.70315454 0.94971268 1.36400661
v 0.70315454 0.94971268 1.32570661
v 0.69452454 0.94971268 1.32570661
v 0.70315454 0.94971268 1.33400661
v 0.69452454 0.94971268 1.33400661
v 0.71389454 0.94971268 1.37026893
v 0.72252454 0.94971268 1.37026893
v 0.71389454 0.94971268 1.36400661
v 0.72252454 0.94971268 1.36400661
v 0.72252454 0.94971268 1.32570661
v 0.71389454 0.94971268 1.32570661
v 0.72252454 0.94971268 1.33400661
v 0.71389454 0.94971268 1.33400661
v 0.70315454 0.94971268 1.28944429
v 0.69452454 0.94971268 1.28944429
v 0.70315454 0.94971268 1.29570661
v 0.69452454 0.94971268 1.29570661
v 0.72252454 0.94971268 1.28944429
v 0.71389454 0.94971268 1.28944429
v 0.72252454 0.94971268 1.29570661
v 0.71389454 0.94971268 1.29570661
v 0.71652454 0.90171268 1.25985661
v 0.71625195 0.90171268 1.26192716
v 0.70852454 0.90171268 1.39185661
v 0.71545274 0.90171268 1.26385661
v 0.71418139 0.90171268 1.26551346
v 0.70079713 0.90171268 1.39778605
v 0.70159634 0.90171268 1.3958566
v 0.70852454 0.90171268 1.26785661
v 0.70286768 0.90171268 1.39419976
v 0.69612454 0.90171268 1.4274731
v 0.70607729 0.90171268 1.4274731
v 0.70421943 0.90171268 1.42659946
v 0.70452454 0.90171268 1.40678482
v 0.70286768 0.90171268 1.40551347
v 0.71545274 0.90171268 1.40385661
v 0.71418139 0.90171268 1.40551347
v 0.72092454 0.90171268 1.4274731
v 0.71252454 0.90171268 1.40678482
v 0.71252454 0.90171268 1.26678481
v 0.71059509 0.90171268 1.26758402
v 0.70645399 0.90171268 1.3921292
v 0.70452454 0.90171268 1.39292841
v 0.70286768 0.90171268 1.25419976
v 0.70452454 0.90171268 1.25292841
v 0.69612454 0.90171268 1.23224012
v 0.71252454 0.90171268 1.25292841
v 0.71418139 0.90171268 1.25419976
v 0.72092454 0.90171268 1.23224012
v 0.71545274 0.90171268 1.25585661
v 0.70159634 0.90171268 1.40385661
v 0.70079713 0.90171268 1.40192716
v 0.70052454 0.90171268 1.39985661
v 0.70286768 0.90171268 1.26551346
v 0.70159634 0.90171268 1.26385661
v 0.70421943 0.90171268 1.23311376
v 0.70607729 0.90171268 1.23224012
v 0.7026451 0.90171268 1.42528175
v 0.70145797 0.90171268 1.42360675
v 0.70073623 0.90171268 1.42168479
v 0.70645399 0.90171268 1.26758402
v 0.70452454 0.90171268 1.26678481
v 0.70159634 0.90171268 1.25585661
v 0.71097179 0.90171268 1.23224012
v 0.71282965 0.90171268 1.23311376
v 0.71440398 0.90171268 1.23443147
v 0.71559111 0.90171268 1.23610646
v 0.71631285 0.90171268 1.23802843
v 0.71056059 0.90171268 1.41212004
v 0.71059509 0.90171268 1.40758401
v 0.70852454 0.90171268 1.41185661
v 0.70852454 0.90171268 1.40785661
v 0.70648849 0.90171268 1.41212004
v 0.70645399 0.90171268 1.40758401
v 0.70458654 0.90171268 1.41289298
v 0.70648849 0.90171268 1.24759318
v 0.70645399 0.90171268 1.2521292
v 0.70852454 0.90171268 1.24785661
v 0.70852454 0.90171268 1.25185661
v 0.71056059 0.90171268 1.24759318
v 0.71059509 0.90171268 1.2521292
v 0.71246254 0.90171268 1.24682024
v 0.71059509 0.90171268 1.3921292
v 0.71625195 0.90171268 1.25778606
v 0.71631285 0.90171268 1.42168479
v 0.71559111 0.90171268 1.42360675
v 0.70052741 0.90171268 1.41964242
v 0.70084526 0.90171268 1.41761416
v 0.70166884 0.90171268 1.41573358
v 0.70294393 0.90171268 1.41412453
v 0.70073623 0.90171268 1.23802843
v 0.70145797 0.90171268 1.23610646
v 0.7026451 0.90171268 1.23443147
v 0.71652167 0.90171268 1.2400708
v 0.71620382 0.90171268 1.24209906
v 0.71538024 0.90171268 1.24397964
v 0.71410515 0.90171268 1.24558869
v 0.71252454 0.90171268 1.39292841
v 0.71418139 0.90171268 1.39419976
v 0.71545274 0.90171268 1.3958566
v 0.71440398 0.90171268 1.42528175
v 0.71282965 0.90171268 1.42659946
v 0.71097179 0.90171268 1.4274731
v 0.71625195 0.90171268 1.39778605
v 0.71652454 0.90171268 1.39985661
v 0.71625195 0.90171268 1.40192716
v 0.71246254 0.90171268 1.41289298
v 0.71410515 0.90171268 1.41412453
v 0.71538024 0.90171268 1.41573358
v 0.71620382 0.90171268 1.41761416
v 0.71652167 0.90171268 1.41964242
v 0.70079713 0.90171268 1.26192716
v 0.70052454 0.90171268 1.25985661
v 0.70079713 0.90171268 1.25778606
v 0.70458654 0.90171268 1.24682024
v 0.70294393 0.90171268 1.24558869
v 0.70166884 0.90171268 1.24397964
v 0.70084526 0.90171268 1.24209906
v 0.70052741 0.90171268 1.2400708
v 0.71027454 0.90171268 1.4228877
v 0.70943041 0.90171268 1.42323735
v 0.70852454 0.90171268 1.42335661
v 0.70761867 0.90171268 1.42323735
v 0.70677454 0.90171268 1.4228877
v 0.70604967 0.90171268 1.42233148
v 0.70549345 0.90171268 1.42160662
v 0.7051438 0.90171268 1.42076248
v 0.70502454 0.90171268 1.41985661
v 0.7051438 0.90171268 1.41895074
v 0.70549345 0.90171268 1.41810662
v 0.70604967 0.90171268 1.41738173
v 0.70677454 0.90171268 1.41682552
v 0.70761867 0.90171268 1.41647588
v 0.70852454 0.90171268 1.41635661
v 0.70943041 0.90171268 1.41647588
v 0.71027454 0.90171268 1.41682552
v 0.71099941 0.90171268 1.41738173
v 0.71155563 0.90171268 1.41810662
v 0.71190528 0.90171268 1.41895074
v 0.71202454 0.90171268 1.41985661
v 0.71190528 0.90171268 1.42076248
v 0.71155563 0.90171268 1.42160662
v 0.71099941 0.90171268 1.42233148
v 0.71202454 0.90171268 1.39985661
v 0.71190528 0.90171268 1.39895074
v 0.71155563 0.90171268 1.3981066
v 0.71099941 0.90171268 1.39738174
v 0.71027454 0.90171268 1.39682552
v 0.70943041 0.90171268 1.39647587
v 0.70852454 0.90171268 1.39635661
v 0.70761867 0.90171268 1.39647587
v 0.70677454 0.90171268 1.39682552
v 0.70604967 0.90171268 1.39738174
v 0.70549345 0.90171268 1.3981066
v 0.7051438 0.90171268 1.39895074
v 0.70502454 0.90171268 1.39985661
v 0.7051438 0.90171268 1.40076248
v 0.70549345 0.90171268 1.4016066
v 0.70604967 0.90171268 1.40233149
v 0.70677454 0.90171268 1.4028877
v 0.70761867 0.90171268 1.40323736
v 0.70852454 0.90171268 1.40335661
v 0.70943041 0.90171268 1.40323736
v 0.71027454 0.90171268 1.4028877
v 0.71099941 0.90171268 1.40233149
v 0.71155563 0.90171268 1.4016066
v 0.71190528 0.90171268 1.40076248
v 0.71202454 0.90171268 1.25985661
v 0.71190528 0.90171268 1.25895074
v 0.71155563 0.90171268 1.25810661
v 0.71099941 0.90171268 1.25738174
v 0.71027454 0.90171268 1.25682552
v 0.70943041 0.90171268 1.25647587
v 0.70852454 0.90171268 1.25635661
v 0.70761867 0.90171268 1.25647587
v 0.70677454 0.90171268 1.25682552
v 0.70604967 0.90171268 1.25738174
v 0.70549345 0.90171268 1.25810661
v 0.7051438 0.90171268 1.25895074
v 0.70502454 0.90171268 1.25985661
v 0.7051438 0.90171268 1.26076248
v 0.70549345 0.90171268 1.26160661
v 0.70604967 0.90171268 1.26233149
v 0.70677454 0.90171268 1.2628877
v 0.70761867 0.90171268 1.26323735
v 0.70852454 0.90171268 1.26335661
v 0.70943041 0.90171268 1.26323735
v 0.71027454 0.90171268 1.2628877
v 0.71099941 0.90171268 1.26233149
v 0.71155563 0.90171268 1.26160661
v 0.71190528 0.90171268 1.26076248
v 0.70315454 0.94591268 1.3747976
v 0.70002454 0.94591268 1.3747976
v 0.70315454 0.94591268 1.33375661
v 0.70002454 0.94591268 1.33375661
v 0.70218368 0.94591268 1.32596403
v 0.70212679 0.94591268 1.32598587
v 0.70002454 0.94591268 1.28491563
v 0.70207688 0.94591268 1.32602082
v 0.70315454 0.94591268 1.28491563
v 0.70315454 0.94591268 1.32595661
v 0.70224416 0.94591268 1.32595661
v 0.7020369 0.94591268 1.32606681
v 0.70200924 0.94591268 1.32612111
v 0.70002454 0.94591268 1.33157402
v 0.71389454 0.94591268 1.28491563
v 0.71702454 0.94591268 1.28491563
v 0.71389454 0.94591268 1.32595661
v 0.71702454 0.94591268 1.32595661
v 0.7148654 0.94591268 1.33374918
v 0.71492229 0.94591268 1.33372734
v 0.71702454 0.94591268 1.3747976
v 0.7149722 0.94591268 1.33369239
v 0.71501218 0.94591268 1.33364641
v 0.71503984 0.94591268 1.33359212
v 0.71702454 0.94591268 1.32813921
v 0.71389454 0.94591268 1.3747976
v 0.71389454 0.94591268 1.33375661
v 0.71480492 0.94591268 1.33375661
v 0.69352454 0.90071268 1.23104836
v 0.69352454 0.90071268 1.42866486
v 0.69352454 0.94871268 1.28825254
v 0.69352454 0.94871268 1.37146069
v 0.71190528 0.89971268 1.24076248
v 0.71202454 0.89971268 1.23985661
v 0.72252454 0.89971268 1.22985661
v 0.71190528 0.89971268 1.23895074
v 0.71155563 0.89971268 1.23810661
v 0.71099941 0.89971268 1.23738174
v 0.71027454 0.89971268 1.23682552
v 0.70943041 0.89971268 1.39647587
v 0.71027454 0.89971268 1.39682552
v 0.71099941 0.89971268 1.39738174
v 0.70761867 0.89971268 1.24323735
v 0.70677454 0.89971268 1.25682552
v 0.70604967 0.89971268 1.25738174
v 0.72252454 0.89971268 1.42985661
v 0.71202454 0.89971268 1.39985661
v 0.71190528 0.89971268 1.39895074
v 0.71155563 0.89971268 1.3981066
v 0.70549345 0.89971268 1.25810661
v 0.7051438 0.89971268 1.25895074
v 0.70677454 0.89971268 1.2428877
v 0.70943041 0.89971268 1.24323735
v 0.71155563 0.89971268 1.25810661
v 0.71099941 0.89971268 1.25738174
v 0.70943041 0.89971268 1.23647587
v 0.70852454 0.89971268 1.23635661
v 0.69452454 0.89971268 1.22985661
v 0.70761867 0.89971268 1.23647587
v 0.70677454 0.89971268 1.23682552
v 0.70604967 0.89971268 1.23738174
v 0.70549345 0.89971268 1.23810661
v 0.7051438 0.89971268 1.23895074
v 0.70502454 0.89971268 1.23985661
v 0.7051438 0.89971268 1.24076248
v 0.69452454 0.89971268 1.42985661
v 0.70549345 0.89971268 1.24160661
v 0.70604967 0.89971268 1.24233148
v 0.71027454 0.89971268 1.25682552
v 0.70943041 0.89971268 1.25647587
v 0.70852454 0.89971268 1.24335661
v 0.70852454 0.89971268 1.25635661
v 0.70761867 0.89971268 1.25647587
v 0.71099941 0.89971268 1.40233149
v 0.71155563 0.89971268 1.4016066
v 0.71190528 0.89971268 1.40076248
v 0.71027454 0.89971268 1.2628877
v 0.71099941 0.89971268 1.26233149
v 0.71190528 0.89971268 1.25895074
v 0.71027454 0.89971268 1.2428877
v 0.71202454 0.89971268 1.25985661
v 0.71099941 0.89971268 1.24233148
v 0.71155563 0.89971268 1.24160661
v 0.70502454 0.89971268 1.25985661
v 0.7051438 0.89971268 1.26076248
v 0.70549345 0.89971268 1.26160661
v 0.70943041 0.89971268 1.26323735
v 0.70943041 0.89971268 1.42323735
v 0.71027454 0.89971268 1.4228877
v 0.71190528 0.89971268 1.42076248
v 0.71202454 0.89971268 1.41985661
v 0.71190528 0.89971268 1.41895074
v 0.71190528 0.89971268 1.26076248
v 0.71155563 0.89971268 1.26160661
v 0.71155563 0.89971268 1.41810662
v 0.71027454 0.89971268 1.4028877
v 0.71099941 0.89971268 1.41738173
v 0.71027454 0.89971268 1.41682552
v 0.70943041 0.89971268 1.41647588
v 0.70852454 0.89971268 1.42335661
v 0.70761867 0.89971268 1.42323735
v 0.71099941 0.89971268 1.42233148
v 0.71155563 0.89971268 1.42160662
v 0.7051438 0.89971268 1.42076248
v 0.70549345 0.89971268 1.42160662
v 0.70761867 0.89971268 1.41647588
v 0.70677454 0.89971268 1.41682552
v 0.70761867 0.89971268 1.40323736
v 0.70604967 0.89971268 1.41738173
v 0.70604967 0.89971268 1.39738174
v 0.70549345 0.89971268 1.3981066
v 0.70677454 0.89971268 1.2628877
v 0.7051438 0.89971268 1.39895074
v 0.70604967 0.89971268 1.26233149
v 0.70502454 0.89971268 1.39985661
v 0.7051438 0.89971268 1.40076248
v 0.70549345 0.89971268 1.4016066
v 0.70604967 0.89971268 1.42233148
v 0.70677454 0.89971268 1.4228877
v 0.70852454 0.89971268 1.26335661
v 0.70852454 0.89971268 1.39635661
v 0.70761867 0.89971268 1.26323735
v 0.70761867 0.89971268 1.39647587
v 0.70677454 0.89971268 1.39682552
v 0.70604967 0.89971268 1.40233149
v 0.70677454 0.89971268 1.4028877
v 0.70549345 0.89971268 1.41810662
v 0.7051438 0.89971268 1.41895074
v 0.70502454 0.89971268 1.41985661
v 0.70852454 0.89971268 1.41635661
v 0.70852454 0.89971268 1.40335661
v 0.70943041 0.89971268 1.40323736
v 0.72352454 0.94871268 1.28825254
v 0.72352454 0.94871268 1.37146069
v 0.72352454 0.90071268 1.23104836
v 0.72352454 0.90071268 1.42866486
v 0.71289454 0.94691268 1.28610738
v 0.71289454 0.94691268 1.37360585
v 0.71289454 0.94871268 1.28825254
v 0.71289454 0.94871268 1.37146069
v 0.71802454 0.94336079 1.2818744
v 0.71802454 0.94336079 1.37783882
v 0.71802454 0.94491268 1.28372387
v 0.71802454 0.94491268 1.37598935
v 0.71420772 0.93912038 1.27682088
v 0.71420772 0.93912038 1.38289234
v 0.71755259 0.94226849 1.28057265
v 0.71755259 0.94226849 1.37914057
v 0.70386941 0.93871268 1.276335
v 0.70386941 0.93871268 1.38337822
v 0.71317967 0.93871268 1.276335
v 0.71317967 0.93871268 1.38337822
v 0.69949649 0.94226849 1.28057265
v 0.69949649 0.94226849 1.37914057
v 0.70284136 0.93912038 1.27682088
v 0.70284136 0.93912038 1.38289234
v 0.69902454 0.94491268 1.28372387
v 0.69902454 0.94491268 1.37598935
v 0.69902454 0.94336079 1.2818744
v 0.69902454 0.94336079 1.37783882
v 0.70415454 0.94871268 1.28825254
v 0.70415454 0.94871268 1.37146069
v 0.70415454 0.94691268 1.28610738
v 0.70415454 0.94691268 1.37360585
v 0.72092454 0.94591268 1.3747976
v 0.72062454 0.94591268 1.3747976
v 0.72092454 0.94591268 1.28491563
v 0.72062454 0.94591268 1.28491563
v 0.71962454 0.94491268 1.37598935
v 0.71962454 0.94288551 1.37840524
v 0.71962454 0.94491268 1.28372387
v 0.71962454 0.94288551 1.28130798
v 0.71899527 0.94142911 1.3801409
v 0.71498664 0.93765628 1.38463719
v 0.71899527 0.94142911 1.27957232
v 0.71498664 0.93765628 1.27507603
v 0.71361591 0.93711268 1.38528502
v 0.70343317 0.93711268 1.38528502
v 0.71361591 0.93711268 1.2744282
v 0.70343317 0.93711268 1.2744282
v 0.70206244 0.93765628 1.38463719
v 0.69805381 0.94142911 1.3801409
v 0.70206244 0.93765628 1.27507603
v 0.69805381 0.94142911 1.27957232
v 0.69742454 0.94288551 1.37840524
v 0.69742454 0.94491268 1.37598935
v 0.69742454 0.94288551 1.28130798
v 0.69742454 0.94491268 1.28372387
v 0.69642454 0.94591268 1.3747976
v 0.69612454 0.94591268 1.3747976
v 0.69642454 0.94591268 1.28491563
v 0.69612454 0.94591268 1.28491563
v 0.69512454 0.94491268 1.37598935
v 0.69512454 0.90271268 1.42628135
v 0.69512454 0.94491268 1.28372387
v 0.69512454 0.90271268 1.23343187
v 0.70677454 0.90171268 1.23682552
v 0.70761867 0.90171268 1.23647587
v 0.70852454 0.90171268 1.23635661
v 0.70943041 0.90171268 1.23647587
v 0.71027454 0.90171268 1.23682552
v 0.71099941 0.90171268 1.23738174
v 0.71155563 0.90171268 1.23810661
v 0.71190528 0.90171268 1.23895074
v 0.71202454 0.90171268 1.23985661
v 0.71190528 0.90171268 1.24076248
v 0.71155563 0.90171268 1.24160661
v 0.71099941 0.90171268 1.24233148
v 0.71027454 0.90171268 1.2428877
v 0.70943041 0.90171268 1.24323735
v 0.70852454 0.90171268 1.24335661
v 0.70761867 0.90171268 1.24323735
v 0.70677454 0.90171268 1.2428877
v 0.70604967 0.90171268 1.24233148
v 0.70549345 0.90171268 1.24160661
v 0.7051438 0.90171268 1.24076248
v 0.70502454 0.90171268 1.23985661
v 0.7051438 0.90171268 1.23895074
v 0.70549345 0.90171268 1.23810661
v 0.70604967 0.90171268 1.23738174
v 0.72192454 0.90271268 1.42628135
v 0.72192454 0.94491268 1.37598935
v 0.72192454 0.90271268 1.23343187
v 0.72192454 0.94491268 1.28372387
v 0.71728336 0.94587861 1.3748382
v 0.71715507 0.94590413 1.37480779
v 0.71752454 0.94577871 1.37495726
v 0.71740722 0.94583656 1.37488832
v 0.71728336 0.94587861 1.28487502
v 0.71715507 0.94590413 1.28490543
v 0.71752454 0.94577871 1.28475596
v 0.7176333 0.94570604 1.28466935
v 0.71773165 0.94561979 1.37514666
v 0.71740722 0.94583656 1.28482491
v 0.7176333 0.94570604 1.37504387
v 0.71773165 0.94561979 1.28456657
v 0.71789056 0.94541268 1.28431975
v 0.71789056 0.94541268 1.37539347
v 0.71799047 0.9451715 1.28403232
v 0.71799047 0.9451715 1.37568089
v 0.69989401 0.94590413 1.37480779
v 0.69976572 0.94587861 1.3748382
v 0.69976572 0.94587861 1.28487502
v 0.69964186 0.94583656 1.28482491
v 0.69941578 0.94570604 1.28466935
v 0.69952454 0.94577871 1.28475596
v 0.69952454 0.94577871 1.37495726
v 0.69905861 0.9451715 1.28403232
v 0.69905861 0.9451715 1.37568089
v 0.69915851 0.94541268 1.28431975
v 0.69915851 0.94541268 1.37539347
v 0.69931743 0.94561979 1.28456657
v 0.69931743 0.94561979 1.37514666
v 0.69941578 0.94570604 1.37504387
v 0.69964186 0.94583656 1.37488832
v 0.69989401 0.94590413 1.28490543
v 0.72135842 0.90181171 1.23235814
v 0.72154803 0.90193085 1.4272131
v 0.72154803 0.90193085 1.23250012
v 0.72170637 0.90208919 1.42702439
v 0.72170637 0.90208919 1.23268882
v 0.72182551 0.9022788 1.42679843
v 0.72182551 0.9022788 1.23291479
v 0.72189947 0.90249016 1.42654654
v 0.72189947 0.90249016 1.23316668
v 0.7210365 0.90171897 1.23224761
v 0.7210365 0.90171897 1.4274656
v 0.72114706 0.90173775 1.23227
v 0.72114706 0.90173775 1.42744322
v 0.72125482 0.9017688 1.23230699
v 0.72125482 0.9017688 1.42740622
v 0.72135842 0.90181171 1.42735508
v 0.69601257 0.90171897 1.23224761
v 0.69601257 0.90171897 1.4274656
v 0.69590202 0.90173775 1.23227
v 0.69590202 0.90173775 1.42744322
v 0.69579426 0.9017688 1.23230699
v 0.69579426 0.9017688 1.42740622
v 0.69569066 0.90181171 1.23235814
v 0.69569066 0.90181171 1.42735508
v 0.69550105 0.90193085 1.23250012
v 0.69550105 0.90193085 1.4272131
v 0.69534271 0.90208919 1.23268882
v 0.69534271 0.90208919 1.42702439
v 0.69522357 0.9022788 1.23291479
v 0.69522357 0.9022788 1.42679843
v 0.69514961 0.90249016 1.23316668
v 0.69514961 0.90249016 1.42654654
v 0.72105507 0.94590413 1.37480779
v 0.72118336 0.94587861 1.3748382
v 0.72105507 0.94590413 1.28490543
v 0.72118336 0.94587861 1.28487502
v 0.72130722 0.94583656 1.37488832
v 0.72142454 0.94577871 1.37495726
v 0.72142454 0.94577871 1.28475596
v 0.7215333 0.94570604 1.28466935
v 0.72163165 0.94561979 1.37514666
v 0.72130722 0.94583656 1.28482491
v 0.7215333 0.94570604 1.37504387
v 0.72163165 0.94561979 1.28456657
v 0.72179057 0.94541268 1.28431975
v 0.72179057 0.94541268 1.37539347
v 0.72189046 0.9451715 1.28403232
v 0.72189046 0.9451715 1.37568089
v 0.72049401 0.94590413 1.28490543
v 0.72024186 0.94583656 1.28482491
v 0.72036572 0.94587861 1.28487502
v 0.72036572 0.94587861 1.3748382
v 0.72001578 0.94570604 1.37504387
v 0.71991743 0.94561979 1.37514666
v 0.71991743 0.94561979 1.28456657
v 0.71975851 0.94541268 1.37539347
v 0.71975851 0.94541268 1.28431975
v 0.71965861 0.9451715 1.37568089
v 0.71965861 0.9451715 1.28403232
v 0.72012454 0.94577871 1.37495726
v 0.72001578 0.94570604 1.28466935
v 0.72012454 0.94577871 1.28475596
v 0.72024186 0.94583656 1.37488832
v 0.72049401 0.94590413 1.37480779
v 0.69599401 0.94590413 1.28490543
v 0.69574186 0.94583656 1.37488832
v 0.69562454 0.94577871 1.37495726
v 0.69562454 0.94577871 1.28475596
v 0.69551578 0.94570604 1.28466935
v 0.69515861 0.9451715 1.28403232
v 0.69515861 0.9451715 1.37568089
v 0.69525851 0.94541268 1.28431975
v 0.69525851 0.94541268 1.37539347
v 0.69541743 0.94561979 1.28456657
v 0.69541743 0.94561979 1.37514666
v 0.69551578 0.94570604 1.37504387
v 0.69586572 0.94587861 1.3748382
v 0.69574186 0.94583656 1.28482491
v 0.69586572 0.94587861 1.28487502
v 0.69599401 0.94590413 1.37480779
v 0.69655507 0.94590413 1.37480779
v 0.69668336 0.94587861 1.3748382
v 0.69655507 0.94590413 1.28490543
v 0.69668336 0.94587861 1.28487502
v 0.69680722 0.94583656 1.37488832
v 0.69692454 0.94577871 1.37495726
v 0.69692454 0.94577871 1.28475596
v 0.6970333 0.94570604 1.28466935
v 0.69713165 0.94561979 1.37514666
v 0.69680722 0.94583656 1.28482491
v 0.6970333 0.94570604 1.37504387
v 0.69713165 0.94561979 1.28456657
v 0.69729056 0.94541268 1.28431975
v 0.69729056 0.94541268 1.37539347
v 0.69739047 0.9451715 1.28403232
v 0.69739047 0.9451715 1.37568089
v 0.72252454 0.89971268 1.42985661
v 0.72252454 0.89971268 1.22985661
v 0.7226365 0.89971897 1.2298641
v 0.7226365 0.89971897 1.42984912
v 0.72274706 0.89973775 1.22988649
v 0.72274706 0.89973775 1.42982674
v 0.72285482 0.8997688 1.42978974
v 0.72285482 0.8997688 1.22992349
v 0.72295842 0.89981171 1.4297386
v 0.72295842 0.89981171 1.22997463
v 0.72314803 0.89993085 1.23011661
v 0.72314803 0.89993085 1.4295966
v 0.72330637 0.90008919 1.23030532
v 0.72330637 0.90008919 1.42940791
v 0.72342551 0.9002788 1.23053128
v 0.72342551 0.9002788 1.42918193
v 0.72349947 0.90049016 1.23078317
v 0.72349947 0.90049016 1.42893004
v 0.69381743 0.90000557 1.23020567
v 0.69365851 0.90021268 1.42926073
v 0.69365851 0.90021268 1.23045249
v 0.69355861 0.90045386 1.4289733
v 0.69355861 0.90045386 1.23073992
v 0.69452454 0.89971268 1.22985661
v 0.69452454 0.89971268 1.42985661
v 0.69439401 0.89972124 1.22986681
v 0.69439401 0.89972124 1.42984642
v 0.69426572 0.89974676 1.22989722
v 0.69426572 0.89974676 1.42981601
v 0.69414186 0.8997888 1.22994733
v 0.69414186 0.8997888 1.4297659
v 0.69402454 0.89984666 1.23001628
v 0.69402454 0.89984666 1.42969695
v 0.69391578 0.89991933 1.23010288
v 0.69391578 0.89991933 1.42961034
v 0.69381743 0.90000557 1.42950755
v 0.69441257 0.94970639 1.37027642
v 0.69441257 0.94970639 1.28943679
v 0.69430202 0.94968761 1.37029882
v 0.69430202 0.94968761 1.28941441
v 0.69419426 0.94965656 1.28937741
v 0.69409066 0.94961365 1.37038696
v 0.69419426 0.94965656 1.3703358
v 0.69409066 0.94961365 1.28932627
v 0.69390105 0.94949451 1.28918429
v 0.69390105 0.94949451 1.37052894
v 0.69374271 0.94933617 1.28899558
v 0.69374271 0.94933617 1.37071764
v 0.69362357 0.94914657 1.28876962
v 0.69362357 0.94914657 1.37094361
v 0.69354961 0.9489352 1.28851772
v 0.69354961 0.9489352 1.3711955
v 0.71376401 0.94970413 1.37027913
v 0.71376401 0.94970413 1.28943409
v 0.71363572 0.94967861 1.37030953
v 0.71339454 0.94957871 1.37042859
v 0.71351186 0.94963656 1.37035964
v 0.71363572 0.94967861 1.28940368
v 0.71339454 0.94957871 1.28928462
v 0.71328578 0.94950604 1.28919802
v 0.71318743 0.94941979 1.37061799
v 0.71351186 0.94963656 1.28935357
v 0.71328578 0.94950604 1.3705152
v 0.71318743 0.94941979 1.28909523
v 0.71302851 0.94921268 1.28884841
v 0.71302851 0.94921268 1.37086481
v 0.71292861 0.9489715 1.28856099
v 0.71292861 0.9489715 1.37115224
v 0.72265507 0.94970413 1.37027913
v 0.72278336 0.94967861 1.37030953
v 0.72278336 0.94967861 1.28940368
v 0.72290722 0.94963656 1.28935357
v 0.7231333 0.94950604 1.28919802
v 0.72302454 0.94957871 1.28928462
v 0.72302454 0.94957871 1.37042859
v 0.72349047 0.9489715 1.28856099
v 0.72349047 0.9489715 1.37115224
v 0.72339056 0.94921268 1.28884841
v 0.72339056 0.94921268 1.37086481
v 0.72323165 0.94941979 1.28909523
v 0.72323165 0.94941979 1.37061799
v 0.7231333 0.94950604 1.3705152
v 0.72290722 0.94963656 1.37035964
v 0.72265507 0.94970413 1.28943409
v 0.70328507 0.94970413 1.37027913
v 0.70341336 0.94967861 1.37030953
v 0.70341336 0.94967861 1.28940368
v 0.70353722 0.94963656 1.37035964
v 0.70365454 0.94957871 1.37042859
v 0.70365454 0.94957871 1.28928462
v 0.7037633 0.94950604 1.28919802
v 0.70412047 0.9489715 1.28856099
v 0.70412047 0.9489715 1.37115224
v 0.70402056 0.94921268 1.28884841
v 0.70402056 0.94921268 1.37086481
v 0.70386165 0.94941979 1.28909523
v 0.70386165 0.94941979 1.37061799
v 0.7037633 0.94950604 1.3705152
v 0.70353722 0.94963656 1.28935357
v 0.70328507 0.94970413 1.28943409
v 0.70328507 0.94592124 1.37478741
v 0.70328507 0.94592124 1.28492582
v 0.70341336 0.94594676 1.28495624
v 0.70341336 0.94594676 1.37475699
v 0.70353722 0.9459888 1.37470688
v 0.70353722 0.9459888 1.28500634
v 0.70365454 0.94604666 1.37463793
v 0.70365454 0.94604666 1.28507529
v 0.7037633 0.94611933 1.37455133
v 0.7037633 0.94611933 1.2851619
v 0.70386165 0.94620558 1.37444854
v 0.70386165 0.94620558 1.28526468
v 0.70402056 0.94641268 1.2855115
v 0.70402056 0.94641268 1.37420171
v 0.70412047 0.94665386 1.28579893
v 0.70412047 0.94665386 1.37391429
v 0.71328578 0.94611933 1.37455133
v 0.71318743 0.94620558 1.37444854
v 0.71318743 0.94620558 1.28526468
v 0.71302851 0.94641268 1.37420171
v 0.71302851 0.94641268 1.2855115
v 0.71292861 0.94665386 1.37391429
v 0.71292861 0.94665386 1.28579893
v 0.71328578 0.94611933 1.2851619
v 0.71339454 0.94604666 1.28507529
v 0.71339454 0.94604666 1.37463793
v 0.71351186 0.9459888 1.28500634
v 0.71351186 0.9459888 1.37470688
v 0.71363572 0.94594676 1.28495624
v 0.71363572 0.94594676 1.37475699
v 0.71376401 0.94592124 1.28492582
v 0.71376401 0.94592124 1.37478741
v 0.71799346 0.94305702 1.28151238
v 0.71799346 0.94305702 1.37820084
v 0.71790151 0.94276584 1.28116537
v 0.71790151 0.94276584 1.37854785
v 0.71775249 0.94249932 1.28084774
v 0.71775249 0.94249932 1.37886548
v 0.71406249 0.93899998 1.38303582
v 0.71406249 0.93899998 1.27667739
v 0.71390329 0.93889876 1.38315646
v 0.71355325 0.93875995 1.27639133
v 0.71373264 0.93881833 1.38325232
v 0.71373264 0.93881833 1.2764609
v 0.71390329 0.93889876 1.27655676
v 0.71336795 0.93872454 1.27634914
v 0.71336795 0.93872454 1.38336408
v 0.71355325 0.93875995 1.3833219
v 0.70368113 0.93872454 1.27634914
v 0.70368113 0.93872454 1.38336408
v 0.70349583 0.93875995 1.27639133
v 0.70349583 0.93875995 1.3833219
v 0.70331644 0.93881833 1.38325232
v 0.70331644 0.93881833 1.2764609
v 0.70314579 0.93889876 1.38315646
v 0.70298659 0.93899998 1.27667739
v 0.70314579 0.93889876 1.27655676
v 0.70298659 0.93899998 1.38303582
v 0.69929659 0.94249932 1.28084774
v 0.69929659 0.94249932 1.37886548
v 0.69914757 0.94276584 1.28116537
v 0.69914757 0.94276584 1.37854785
v 0.69905562 0.94305702 1.28151238
v 0.69905562 0.94305702 1.37820084
v 0.71926181 0.94173688 1.2799391
v 0.71926181 0.94173688 1.37977412
v 0.71946049 0.94209224 1.28036261
v 0.71946049 0.94209224 1.37935062
v 0.7195831 0.94248049 1.28082529
v 0.7195831 0.94248049 1.37888792
v 0.69746598 0.94248049 1.28082529
v 0.69746598 0.94248049 1.37888792
v 0.69758858 0.94209224 1.28036261
v 0.69758858 0.94209224 1.37935062
v 0.69778727 0.94173688 1.2799391
v 0.69778727 0.94173688 1.37977412
v 0.70225609 0.93749575 1.38482851
v 0.70225609 0.93749575 1.27488472
v 0.70246835 0.93736079 1.27472388
v 0.70318213 0.9371285 1.27444705
v 0.70318213 0.9371285 1.38526617
v 0.70293507 0.9371757 1.2745033
v 0.70293507 0.9371757 1.38520992
v 0.70269588 0.93725354 1.27459607
v 0.70269588 0.93725354 1.38511716
v 0.70246835 0.93736079 1.38498934
v 0.71386695 0.9371285 1.38526617
v 0.71386695 0.9371285 1.27444705
v 0.71411401 0.9371757 1.38520992
v 0.71479299 0.93749575 1.27488472
v 0.71411401 0.9371757 1.2745033
v 0.7143532 0.93725354 1.27459607
v 0.7143532 0.93725354 1.38511716
v 0.71458073 0.93736079 1.27472388
v 0.71458073 0.93736079 1.38498934
v 0.71479299 0.93749575 1.38482851
v 0.72252454 0.89971268 1.42985661
v 0.69352454 0.90071268 1.42866486
v 0.69452454 0.89971268 1.42985661
v 0.69352454 0.94871268 1.37146069
v 0.69352454 0.90071268 1.23104836
v 0.69352454 0.94871268 1.28825254
v 0.69452454 0.89971268 1.22985661
v 0.72252454 0.89971268 1.22985661
v 0.70852454 0.89971268 1.40335661
v 0.70943041 0.89971268 1.40323736
v 0.71027454 0.89971268 1.4028877
v 0.71099941 0.89971268 1.40233149
v 0.71155563 0.89971268 1.4016066
v 0.71190528 0.89971268 1.40076248
v 0.71202454 0.89971268 1.39985661
v 0.71190528 0.89971268 1.39895074
v 0.71155563 0.89971268 1.3981066
v 0.71099941 0.89971268 1.39738174
v 0.71027454 0.89971268 1.39682552
v 0.70943041 0.89971268 1.39647587
v 0.70852454 0.89971268 1.39635661
v 0.70761867 0.89971268 1.39647587
v 0.70677454 0.89971268 1.39682552
v 0.70604967 0.89971268 1.39738174
v 0.70549345 0.89971268 1.3981066
v 0.7051438 0.89971268 1.39895074
v 0.70502454 0.89971268 1.39985661
v 0.7051438 0.89971268 1.40076248
v 0.70549345 0.89971268 1.4016066
v 0.70604967 0.89971268 1.40233149
v 0.70677454 0.89971268 1.4028877
v 0.70761867 0.89971268 1.40323736
v 0.70852454 0.89971268 1.24335661
v 0.70943041 0.89971268 1.24323735
v 0.71027454 0.89971268 1.2428877
v 0.71099941 0.89971268 1.24233148
v 0.71155563 0.89971268 1.24160661
v 0.71190528 0.89971268 1.24076248
v 0.71202454 0.89971268 1.23985661
v 0.71190528 0.89971268 1.23895074
v 0.71155563 0.89971268 1.23810661
v 0.71099941 0.89971268 1.23738174
v 0.71027454 0.89971268 1.23682552
v 0.70943041 0.89971268 1.23647587
v 0.70852454 0.89971268 1.23635661
v 0.70761867 0.89971268 1.23647587
v 0.70677454 0.89971268 1.23682552
v 0.70604967 0.89971268 1.23738174
v 0.70549345 0.89971268 1.23810661
v 0.7051438 0.89971268 1.23895074
v 0.70502454 0.89971268 1.23985661
v 0.7051438 0.89971268 1.24076248
v 0.70549345 0.89971268 1.24160661
v 0.70604967 0.89971268 1.24233148
v 0.70677454 0.89971268 1.2428877
v 0.70761867 0.89971268 1.24323735
v 0.70852454 0.89971268 1.26335661
v 0.70943041 0.89971268 1.26323735
v 0.71027454 0.89971268 1.2628877
v 0.71099941 0.89971268 1.26233149
v 0.71155563 0.89971268 1.26160661
v 0.71190528 0.89971268 1.26076248
v 0.71202454 0.89971268 1.25985661
v 0.71190528 0.89971268 1.25895074
v 0.71155563 0.89971268 1.25810661
v 0.71099941 0.89971268 1.25738174
v 0.71027454 0.89971268 1.25682552
v 0.70943041 0.89971268 1.25647587
v 0.70852454 0.89971268 1.25635661
v 0.70761867 0.89971268 1.25647587
v 0.70677454 0.89971268 1.25682552
v 0.70604967 0.89971268 1.25738174
v 0.70549345 0.89971268 1.25810661
v 0.7051438 0.89971268 1.25895074
v 0.70502454 0.89971268 1.25985661
v 0.7051438 0.89971268 1.26076248
v 0.70549345 0.89971268 1.26160661
v 0.70604967 0.89971268 1.26233149
v 0.70677454 0.89971268 1.2628877
v 0.70761867 0.89971268 1.26323735
v 0.70852454 0.89971268 1.42335661
v 0.70943041 0.89971268 1.42323735
v 0.71027454 0.89971268 1.4228877
v 0.71099941 0.89971268 1.42233148
v 0.71155563 0.89971268 1.42160662
v 0.71190528 0.89971268 1.42076248
v 0.71202454 0.89971268 1.41985661
v 0.71190528 0.89971268 1.41895074
v 0.71155563 0.89971268 1.41810662
v 0.71099941 0.89971268 1.41738173
v 0.71027454 0.89971268 1.41682552
v 0.70943041 0.89971268 1.41647588
v 0.70852454 0.89971268 1.41635661
v 0.70761867 0.89971268 1.41647588
v 0.70677454 0.89971268 1.41682552
v 0.70604967 0.89971268 1.41738173
v 0.70549345 0.89971268 1.41810662
v 0.7051438 0.89971268 1.41895074
v 0.70502454 0.89971268 1.41985661
v 0.7051438 0.89971268 1.42076248
v 0.70549345 0.89971268 1.42160662
v 0.70604967 0.89971268 1.42233148
v 0.70677454 0.89971268 1.4228877
v 0.70761867 0.89971268 1.42323735
vn 0 1 0
vn 0 -1 0
vn -1 0 0
vn -0 -1 0
vn 1 0 0
vn -0.68536 0.7282 0
vn 0.68536 0.7282 0
vn -0 -1 0
vn 0.68536 -0.7282 0
vn -0.68536 -0.7282 0
vn 1 0 0
vn -1 0 0
vn -0 -1 0
vn -0.25882 -0.96593 0
vn -0.13053 -0.99144 0
vn -0.5 -0.86603 0
vn -0.38268 -0.92388 0
vn -0.60876 -0.79335 0
vn -0.70711 -0.70711 0
vn -0.86603 -0.5 0
vn -0.96593 -0.25882 0
vn 0.13053 -0.99144 0
vn 0.25882 -0.96593 0
vn 0.38268 -0.92388 0
vn 0.60876 -0.79335 0
vn 0.5 -0.86603 0
vn 0.96593 -0.25882 0
vn 0.86603 -0.5 0
vn 0.70711 -0.70711 0
vn -0.43388 0.90097 0
vn -0.62349 0.78183 0
vn -0.78183 0.62349 0
vn -0.90097 0.43388 0
vn -0.97493 0.22252 0
vn -1 -0 0
vn 0 1 0
vn -0.11196 0.99371 0
vn -0.22252 0.97493 0
vn -0.33028 0.94388 0
vn 0.11196 0.99371 0
vn 0.22252 0.97493 0
vn 0.33028 0.94388 0
vn 0.43388 0.90097 0
vn 0.62349 0.78183 0
vn 0.78183 0.62349 0
vn 0.90097 0.43388 0
vn 0.97493 0.22252 0
vn 1 -0 0
vn 1 0 0
vn -0 -1 0
vn -0 -1 0
vn 1 0 0
vn 0 -1 0
vn 0.11196 -0.99371 0
vn 0.22252 -0.97493 0
vn 0.33028 -0.94388 0
vn 0.43388 -0.90097 0
vn 0.62349 -0.78183 0
vn 0.78183 -0.62349 0
vn 0.90097 -0.43388 0
vn 0.97493 -0.22252 0
vn 1 0 0
vn 1 0 0
vn -1 0 0
vn 0 -1 0
vn 0 1 0
vn -0.13053 0.99144 0
vn -0 1 0
vn -0.25882 0.96593 0
vn -0.5 0.86603 0
vn -0.38268 0.92388 0
vn -0.60876 0.79335 0
vn -0.70711 0.70711 0
vn -0.86603 0.5 0
vn -0.96593 0.25882 0
vn 0.13053 0.99144 0
vn 0.25882 0.96593 0
vn 0.38268 0.92388 0
vn 0.60876 0.79335 0
vn 0.5 0.86603 0
vn 0.96593 0.25882 0
vn 0.86603 0.5 0
vn 0.70711 0.70711 0
vn -1 0 0
vn -0.97928 0.20251 0
vn -0.91798 0.39663 0
vn -0.81863 0.57432 0
vn -0.68536 0.7282 0
vn -0.68536 0.7282 0
vn -0.58854 0.80847 0
vn -0.58854 0.80847 0
vn -0.48241 0.87595 0
vn -0.24905 0.96849 0
vn -0.36865 0.92957 0
vn -0.36865 0.92957 0
vn -0.48241 0.87595 0
vn 0 1 0
vn -0.12552 0.99209 0
vn -0.12552 0.99209 0
vn -0.24905 0.96849 0
vn 0 1 0
vn 0.12552 0.99209 0
vn 0.12552 0.99209 0
vn 0.24905 0.96849 0
vn 0.24905 0.96849 0
vn 0.36865 0.92957 0
vn 0.36865 0.92957 0
vn 0.48241 0.87595 0
vn 0.58854 0.80847 0
vn 0.68536 0.7282 0
vn 0.48241 0.87595 0
vn 0.58854 0.80847 0
vn 0.81863 0.57432 0
vn 0.91798 0.39663 0
vn 0.97928 0.20251 0
vn 0.81863 -0.57432 0
vn 0.91798 -0.39663 0
vn 0.97928 -0.20251 0
vn -0.97928 -0.20251 -0
vn -0.97928 -0.20251 -0
vn -0.91798 -0.39663 -0
vn -0.91798 -0.39663 -0
vn -0.81863 -0.57432 -0
vn -0.81863 -0.57432 -0
vn -0.68536 -0.7282 -0
vn -0.58854 -0.80847 0
vn -0.48241 -0.87595 0
vn -0.12552 -0.99209 0
vn -0.24905 -0.96849 0
vn -0.36865 -0.92957 0
vn 0.12552 -0.99209 0
vn 0.24905 -0.96849 0
vn 0.58854 -0.80847 0
vn 0.36865 -0.92957 0
vn 0.48241 -0.87595 0
vn 0 0.76604 0.64279
vn 0 0.76604 -0.64279
vn 0 0 -1
vn -0.25882 0 -0.96593
vn -0.5 0 -0.86603
vn -0.70711 0 -0.70711
vn -0.86603 0 -0.5
vn -0.96593 0 -0.25882
vn -1 0 -0
vn -0.96593 0 0.25882
vn -0.86603 0 0.5
vn -0.70711 0 0.70711
vn -0.5 0 0.86603
vn -0.25882 0 0.96593
vn -0 0 1
vn 0.25882 0 0.96593
vn 0.5 0 0.86603
vn 0.70711 0 0.70711
vn 0.86603 0 0.5
vn 0.96593 0 0.25882
vn 1 0 0
vn 0.96593 0 -0.25882
vn 0.86603 0 -0.5
vn 0.70711 0 -0.70711
vn 0.5 0 -0.86603
vn 0.25882 0 -0.96593
vn 1 0 0
usemtl mat0
f 9//7 10//7 11//7
f 11//7 10//7 12//7
f 13//7 14//7 15//7
f 15//7 14//7 16//7
f 17//7 18//7 19//7
f 19//7 18//7 20//7
f 21//7 22//7 23//7
f 23//7 22//7 24//7
f 25//7 26//7 27//7
f 27//7 26//7 28//7
f 12//7 15//7 11//7
f 11//7 15//7 16//7
f 29//7 30//7 31//7
f 31//7 30//7 32//7
f 20//7 23//7 19//7
f 19//7 23//7 24//7
f 33//7 34//7 35//7
f 35//7 34//7 36//7
f 35//7 36//7 37//7
f 38//7 39//7 40//7
f 40//7 39//7 41//7
f 42//7 43//7 44//7
f 42//7 45//7 46//7
f 47//7 48//7 49//7
f 49//7 48//7 50//7
f 37//7 51//7 35//7
f 35//7 51//7 52//7
f 35//7 52//7 53//7
f 53//7 52//7 40//7
f 53//7 40//7 54//7
f 54//7 40//7 41//7
f 55//7 56//7 57//7
f 58//7 59//7 60//7
f 60//7 59//7 61//7
f 46//7 62//7 42//7
f 42//7 62//7 63//7
f 42//7 63//7 64//7
f 65//7 66//7 42//7
f 67//7 68//7 57//7
f 44//7 69//7 42//7
f 42//7 69//7 70//7
f 42//7 70//7 71//7
f 38//7 40//7 64//7
f 64//7 40//7 72//7
f 64//7 72//7 42//7
f 42//7 72//7 73//7
f 42//7 73//7 65//7
f 55//7 57//7 74//7
f 60//7 75//7 76//7
f 76//7 77//7 60//7
f 60//7 77//7 78//7
f 60//7 78//7 79//7
f 80//7 81//7 82//7
f 82//7 81//7 83//7
f 82//7 83//7 84//7
f 84//7 83//7 85//7
f 84//7 85//7 86//7
f 87//7 88//7 89//7
f 89//7 88//7 90//7
f 89//7 90//7 91//7
f 91//7 90//7 92//7
f 91//7 92//7 93//7
f 35//7 94//7 33//7
f 33//7 94//7 60//7
f 33//7 60//7 95//7
f 95//7 60//7 61//7
f 49//7 96//7 97//7
f 71//7 98//7 42//7
f 42//7 98//7 99//7
f 42//7 99//7 45//7
f 45//7 99//7 100//7
f 45//7 100//7 85//7
f 85//7 100//7 101//7
f 85//7 101//7 86//7
f 102//7 103//7 57//7
f 57//7 103//7 104//7
f 57//7 104//7 67//7
f 79//7 105//7 60//7
f 60//7 105//7 106//7
f 60//7 106//7 58//7
f 58//7 106//7 107//7
f 58//7 107//7 92//7
f 92//7 107//7 108//7
f 92//7 108//7 93//7
f 94//7 109//7 60//7
f 60//7 109//7 110//7
f 60//7 110//7 111//7
f 97//7 112//7 49//7
f 49//7 112//7 113//7
f 49//7 113//7 114//7
f 111//7 115//7 60//7
f 60//7 115//7 116//7
f 60//7 116//7 49//7
f 49//7 116//7 117//7
f 49//7 117//7 47//7
f 80//7 118//7 81//7
f 81//7 118//7 119//7
f 81//7 119//7 50//7
f 119//7 120//7 50//7
f 50//7 120//7 121//7
f 50//7 121//7 49//7
f 49//7 121//7 122//7
f 49//7 122//7 96//7
f 66//7 123//7 42//7
f 42//7 123//7 124//7
f 42//7 124//7 57//7
f 57//7 124//7 125//7
f 57//7 125//7 74//7
f 87//7 126//7 88//7
f 88//7 126//7 127//7
f 88//7 127//7 56//7
f 127//7 128//7 56//7
f 56//7 128//7 129//7
f 56//7 129//7 57//7
f 57//7 129//7 130//7
f 57//7 130//7 102//7
f 131//7 132//7 114//7
f 114//7 132//7 133//7
f 114//7 133//7 43//7
f 43//7 133//7 134//7
f 43//7 134//7 44//7
f 44//7 134//7 135//7
f 44//7 135//7 69//7
f 69//7 135//7 136//7
f 69//7 136//7 70//7
f 70//7 136//7 137//7
f 70//7 137//7 71//7
f 71//7 137//7 138//7
f 71//7 138//7 98//7
f 98//7 138//7 139//7
f 98//7 139//7 99//7
f 99//7 139//7 140//7
f 99//7 140//7 100//7
f 100//7 140//7 141//7
f 100//7 141//7 101//7
f 101//7 141//7 142//7
f 101//7 142//7 86//7
f 86//7 142//7 143//7
f 86//7 143//7 84//7
f 84//7 143//7 144//7
f 84//7 144//7 82//7
f 82//7 144//7 145//7
f 82//7 145//7 80//7
f 80//7 145//7 146//7
f 80//7 146//7 118//7
f 118//7 146//7 147//7
f 118//7 147//7 119//7
f 119//7 147//7 148//7
f 119//7 148//7 120//7
f 120//7 148//7 149//7
f 120//7 149//7 121//7
f 121//7 149//7 150//7
f 121//7 150//7 122//7
f 122//7 150//7 151//7
f 122//7 151//7 96//7
f 96//7 151//7 152//7
f 96//7 152//7 97//7
f 97//7 152//7 153//7
f 97//7 153//7 112//7
f 112//7 153//7 154//7
f 112//7 154//7 113//7
f 113//7 154//7 131//7
f 113//7 131//7 114//7
f 155//7 116//7 156//7
f 156//7 116//7 115//7
f 156//7 115//7 157//7
f 157//7 115//7 111//7
f 157//7 111//7 158//7
f 158//7 111//7 110//7
f 158//7 110//7 159//7
f 159//7 110//7 109//7
f 159//7 109//7 160//7
f 160//7 109//7 94//7
f 160//7 94//7 161//7
f 161//7 94//7 35//7
f 161//7 35//7 162//7
f 162//7 35//7 53//7
f 162//7 53//7 163//7
f 163//7 53//7 54//7
f 163//7 54//7 164//7
f 164//7 54//7 41//7
f 164//7 41//7 165//7
f 165//7 41//7 39//7
f 165//7 39//7 166//7
f 166//7 39//7 38//7
f 166//7 38//7 167//7
f 167//7 38//7 64//7
f 167//7 64//7 168//7
f 168//7 64//7 63//7
f 168//7 63//7 169//7
f 169//7 63//7 62//7
f 169//7 62//7 170//7
f 170//7 62//7 46//7
f 170//7 46//7 171//7
f 171//7 46//7 45//7
f 171//7 45//7 172//7
f 172//7 45//7 85//7
f 172//7 85//7 173//7
f 173//7 85//7 83//7
f 173//7 83//7 174//7
f 174//7 83//7 81//7
f 174//7 81//7 175//7
f 175//7 81//7 50//7
f 175//7 50//7 176//7
f 176//7 50//7 48//7
f 176//7 48//7 177//7
f 177//7 48//7 47//7
f 177//7 47//7 178//7
f 178//7 47//7 117//7
f 178//7 117//7 155//7
f 155//7 117//7 116//7
f 179//7 33//7 180//7
f 180//7 33//7 95//7
f 180//7 95//7 181//7
f 181//7 95//7 61//7
f 181//7 61//7 182//7
f 182//7 61//7 59//7
f 182//7 59//7 183//7
f 183//7 59//7 58//7
f 183//7 58//7 184//7
f 184//7 58//7 92//7
f 184//7 92//7 185//7
f 185//7 92//7 90//7
f 185//7 90//7 186//7
f 186//7 90//7 88//7
f 186//7 88//7 187//7
f 187//7 88//7 56//7
f 187//7 56//7 188//7
f 188//7 56//7 55//7
f 188//7 55//7 189//7
f 189//7 55//7 74//7
f 189//7 74//7 190//7
f 190//7 74//7 125//7
f 190//7 125//7 191//7
f 191//7 125//7 124//7
f 191//7 124//7 192//7
f 192//7 124//7 123//7
f 192//7 123//7 193//7
f 193//7 123//7 66//7
f 193//7 66//7 194//7
f 194//7 66//7 65//7
f 194//7 65//7 195//7
f 195//7 65//7 73//7
f 195//7 73//7 196//7
f 196//7 73//7 72//7
f 196//7 72//7 197//7
f 197//7 72//7 40//7
f 197//7 40//7 198//7
f 198//7 40//7 52//7
f 198//7 52//7 199//7
f 199//7 52//7 51//7
f 199//7 51//7 200//7
f 200//7 51//7 37//7
f 200//7 37//7 201//7
f 201//7 37//7 36//7
f 201//7 36//7 202//7
f 202//7 36//7 34//7
f 202//7 34//7 179//7
f 179//7 34//7 33//7
f 203//8 204//8 205//8
f 205//8 204//8 206//8
f 207//8 208//8 209//8
f 209//8 208//8 210//8
f 211//8 212//8 209//8
f 209//8 212//8 213//8
f 209//8 213//8 207//8
f 210//8 214//8 209//8
f 209//8 214//8 215//8
f 209//8 215//8 216//8
f 217//8 218//8 219//8
f 219//8 218//8 220//8
f 221//8 222//8 223//8
f 223//8 222//8 224//8
f 224//8 225//8 223//8
f 223//8 225//8 226//8
f 223//8 226//8 227//8
f 228//8 229//8 223//8
f 223//8 229//8 230//8
f 223//8 230//8 221//8
f 231//9 232//9 233//9
f 233//9 232//9 234//9
f 235//10 236//10 237//10
f 237//10 236//10 238//10
f 238//10 239//10 237//10
f 237//10 239//10 240//10
f 237//10 240//10 241//10
f 242//10 237//10 243//10
f 243//10 237//10 244//10
f 245//10 246//10 247//10
f 248//10 249//10 250//10
f 248//10 250//10 237//10
f 237//10 250//10 251//10
f 237//10 251//10 244//10
f 247//10 252//10 245//10
f 245//10 252//10 253//10
f 245//10 253//10 254//10
f 255//10 256//10 257//10
f 241//10 258//10 237//10
f 237//10 258//10 259//10
f 237//10 259//10 260//10
f 260//10 259//10 261//10
f 260//10 261//10 262//10
f 262//10 263//10 260//10
f 260//10 263//10 264//10
f 260//10 264//10 265//10
f 265//10 266//10 260//10
f 260//10 266//10 267//10
f 260//10 267//10 268//10
f 268//10 267//10 269//10
f 268//10 269//10 270//10
f 257//10 271//10 255//10
f 255//10 271//10 272//10
f 255//10 272//10 273//10
f 273//10 272//10 274//10
f 273//10 274//10 245//10
f 245//10 274//10 275//10
f 245//10 275//10 246//10
f 276//10 277//10 248//10
f 248//10 277//10 278//10
f 248//10 278//10 249//10
f 242//10 279//10 280//10
f 256//10 255//10 281//10
f 281//10 255//10 282//10
f 281//10 282//10 283//10
f 283//10 282//10 284//10
f 283//10 284//10 285//10
f 254//10 253//10 270//10
f 270//10 253//10 286//10
f 270//10 286//10 268//10
f 268//10 286//10 287//10
f 268//10 287//10 288//10
f 279//10 242//10 289//10
f 290//10 291//10 248//10
f 292//10 293//10 248//10
f 248//10 293//10 294//10
f 285//10 235//10 283//10
f 283//10 235//10 237//10
f 283//10 237//10 295//10
f 295//10 237//10 242//10
f 295//10 242//10 296//10
f 296//10 242//10 280//10
f 294//10 297//10 248//10
f 248//10 297//10 298//10
f 248//10 298//10 276//10
f 297//10 299//10 298//10
f 298//10 299//10 300//10
f 298//10 300//10 301//10
f 290//10 248//10 302//10
f 302//10 248//10 268//10
f 302//10 268//10 303//10
f 291//10 304//10 248//10
f 248//10 304//10 305//10
f 248//10 305//10 292//10
f 268//10 306//10 307//10
f 308//10 309//10 310//10
f 310//10 309//10 311//10
f 312//10 313//10 314//10
f 313//10 315//10 314//10
f 314//10 315//10 268//10
f 314//10 268//10 316//10
f 316//10 268//10 288//10
f 315//10 317//10 268//10
f 268//10 317//10 318//10
f 268//10 318//10 319//10
f 307//10 320//10 268//10
f 268//10 320//10 321//10
f 268//10 321//10 303//10
f 289//10 242//10 322//10
f 322//10 242//10 323//10
f 322//10 323//10 324//10
f 324//10 323//10 325//10
f 324//10 325//10 314//10
f 314//10 325//10 326//10
f 314//10 326//10 312//10
f 319//10 327//10 268//10
f 268//10 327//10 328//10
f 268//10 328//10 310//10
f 311//10 329//10 310//10
f 310//10 329//10 330//10
f 310//10 330//10 268//10
f 268//10 330//10 331//10
f 268//10 331//10 306//10
f 308//10 310//10 332//10
f 332//10 310//10 333//10
f 332//10 333//10 301//10
f 301//10 333//10 334//10
f 301//10 334//10 298//10
f 335//11 336//11 337//11
f 337//11 336//11 338//11
f 32//7 22//7 31//7
f 31//7 22//7 21//7
f 339//9 340//9 341//9
f 341//9 340//9 342//9
f 230//8 229//8 226//8
f 226//8 229//8 227//8
f 227//8 229//8 219//8
f 227//8 219//8 220//8
f 226//8 225//8 230//8
f 230//8 225//8 224//8
f 230//8 224//8 221//8
f 221//8 224//8 222//8
f 343//9 344//9 345//9
f 345//9 344//9 346//9
f 347//12 348//12 349//12
f 349//12 348//12 350//12
f 351//7 352//7 353//7
f 353//7 352//7 354//7
f 355//13 356//13 357//13
f 357//13 356//13 358//13
f 359//11 360//11 361//11
f 361//11 360//11 362//11
f 213//8 212//8 205//8
f 205//8 206//8 216//8
f 216//8 215//8 205//8
f 205//8 215//8 214//8
f 205//8 214//8 210//8
f 210//8 208//8 205//8
f 205//8 208//8 207//8
f 205//8 207//8 213//8
f 363//11 364//11 365//11
f 365//11 364//11 366//11
f 28//7 14//7 27//7
f 27//7 14//7 13//7
f 367//14 368//14 369//14
f 369//14 368//14 370//14
f 371//11 372//11 373//11
f 373//11 372//11 374//11
f 375//15 376//15 377//15
f 377//15 376//15 378//15
f 379//8 380//8 381//8
f 381//8 380//8 382//8
f 383//16 384//16 385//16
f 385//16 384//16 386//16
f 387//9 388//9 389//9
f 389//9 388//9 390//9
f 391//8 392//8 393//8
f 393//8 392//8 394//8
f 395//17 396//17 397//17
f 397//17 396//17 398//17
f 399//7 400//7 68//7
f 68//7 400//7 401//7
f 68//7 401//7 75//7
f 75//7 401//7 402//7
f 75//7 402//7 76//7
f 76//7 402//7 403//7
f 76//7 403//7 77//7
f 77//7 403//7 404//7
f 77//7 404//7 78//7
f 78//7 404//7 405//7
f 78//7 405//7 79//7
f 79//7 405//7 406//7
f 79//7 406//7 105//7
f 105//7 406//7 407//7
f 105//7 407//7 106//7
f 106//7 407//7 408//7
f 106//7 408//7 107//7
f 107//7 408//7 409//7
f 107//7 409//7 108//7
f 108//7 409//7 410//7
f 108//7 410//7 93//7
f 93//7 410//7 411//7
f 93//7 411//7 91//7
f 91//7 411//7 412//7
f 91//7 412//7 89//7
f 89//7 412//7 413//7
f 89//7 413//7 87//7
f 87//7 413//7 414//7
f 87//7 414//7 126//7
f 126//7 414//7 415//7
f 126//7 415//7 127//7
f 127//7 415//7 416//7
f 127//7 416//7 128//7
f 128//7 416//7 417//7
f 128//7 417//7 129//7
f 129//7 417//7 418//7
f 129//7 418//7 130//7
f 130//7 418//7 419//7
f 130//7 419//7 102//7
f 102//7 419//7 420//7
f 102//7 420//7 103//7
f 103//7 420//7 421//7
f 103//7 421//7 104//7
f 104//7 421//7 422//7
f 104//7 422//7 67//7
f 67//7 422//7 399//7
f 67//7 399//7 68//7
f 423//18 424//18 425//18
f 425//18 424//18 426//18
f 220//19 427//20 227//19
f 227//19 427//20 428//21
f 227//19 428//21 223//19
f 429//22 430//23 431//20
f 431//20 430//23 427//20
f 431//20 427//20 432//21
f 432//21 427//20 220//19
f 432//21 220//19 218//8
f 433//22 434//24 435//25
f 431//20 436//23 429//22
f 429//22 436//23 433//22
f 429//22 433//22 437//24
f 437//24 433//22 435//25
f 434//24 438//25 435//25
f 435//25 438//25 439//26
f 435//25 439//26 440//26
f 440//26 439//26 441//27
f 440//26 441//27 442//27
f 442//27 441//27 345//9
f 442//27 345//9 346//9
f 443//28 444//29 445//29
f 445//29 444//29 446//30
f 447//31 448//32 449//32
f 360//11 359//11 450//33
f 360//11 450//33 451//33
f 451//33 450//33 452//34
f 451//33 452//34 453//34
f 453//34 452//34 454//35
f 453//34 454//35 455//35
f 447//31 449//32 454//35
f 454//35 449//32 456//31
f 454//35 456//31 455//35
f 446//30 444//29 448//32
f 448//32 444//29 457//30
f 448//32 457//30 449//32
f 204//8 443//28 206//19
f 206//19 443//28 445//29
f 206//19 445//29 216//19
f 216//19 445//29 458//28
f 216//19 458//28 209//19
f 459//36 460//37 461//37
f 461//37 460//37 462//38
f 461//37 462//38 463//38
f 463//38 462//38 464//39
f 463//38 464//39 465//39
f 465//39 464//39 466//40
f 465//39 466//40 467//40
f 467//40 466//40 423//9
f 467//40 423//9 425//41
f 60//42 49//7 468//43
f 468//43 49//7 469//43
f 468//43 469//43 470//44
f 470//44 469//43 471//44
f 470//44 471//44 472//45
f 472//45 471//44 473//45
f 472//45 473//45 459//36
f 459//36 473//45 474//36
f 459//36 474//36 460//37
f 42//7 57//7 475//46
f 42//7 475//46 476//46
f 476//46 475//46 477//47
f 476//46 477//47 478//47
f 478//47 477//47 479//48
f 478//47 479//48 480//48
f 480//48 479//48 481//49
f 480//48 481//49 482//49
f 482//49 481//49 483//50
f 482//49 483//50 484//50
f 484//50 483//50 485//51
f 484//50 485//51 486//51
f 486//51 485//51 487//52
f 486//51 487//52 488//52
f 488//52 487//52 489//53
f 488//52 489//53 490//53
f 490//53 489//53 398//54
f 490//53 398//54 396//55
f 491//21 367//56 369//56
f 491//21 369//56 492//20
f 369//56 493//21 492//20
f 492//20 493//21 494//20
f 492//20 494//20 495//23
f 495//23 494//20 496//22
f 497//22 498//24 499//25
f 494//20 500//23 496//22
f 496//22 500//23 497//22
f 496//22 497//22 501//24
f 501//24 497//22 499//25
f 498//24 502//25 499//25
f 499//25 502//25 503//26
f 499//25 503//26 504//26
f 504//26 503//26 505//27
f 504//26 505//27 506//27
f 506//27 505//27 426//9
f 506//27 426//9 424//9
f 507//28 370//57 368//56
f 508//30 509//29 510//29
f 511//31 512//35 513//35
f 513//35 512//35 514//34
f 513//35 514//34 515//34
f 515//34 514//34 516//33
f 515//34 516//33 517//33
f 517//33 516//33 371//11
f 517//33 371//11 373//58
f 511//31 513//35 518//32
f 518//32 513//35 519//31
f 518//32 519//31 520//32
f 508//30 510//29 520//32
f 520//32 510//29 521//30
f 520//32 521//30 518//32
f 507//28 368//56 509//29
f 509//29 368//56 522//28
f 509//29 522//28 510//29
f 523//28 394//19 392//8
f 524//30 525//32 526//32
f 526//32 525//32 527//31
f 395//11 397//11 528//33
f 395//11 528//33 529//33
f 529//33 528//33 530//34
f 529//33 530//34 531//34
f 531//34 530//34 532//35
f 531//34 532//35 533//35
f 527//31 525//32 532//35
f 532//35 525//32 534//31
f 532//35 534//31 533//35
f 524//30 526//32 535//29
f 535//29 526//32 536//30
f 535//29 536//30 537//29
f 523//28 392//8 537//29
f 537//29 392//8 538//28
f 537//29 538//28 535//29
f 539//21 391//8 393//8
f 539//21 393//8 540//20
f 393//8 541//21 540//20
f 540//20 541//21 542//20
f 540//20 542//20 543//23
f 543//23 542//20 544//22
f 545//22 546//24 547//25
f 542//20 548//23 544//22
f 544//22 548//23 545//22
f 544//22 545//22 549//24
f 549//24 545//22 547//25
f 546//24 550//25 547//25
f 547//25 550//25 551//26
f 547//25 551//26 552//26
f 552//26 551//26 553//27
f 552//26 553//27 554//27
f 554//27 553//27 390//9
f 554//27 390//9 388//9
f 555//59 556//59 557//60
f 555//59 557//60 558//60
f 558//60 557//60 559//61
f 558//60 559//61 560//61
f 560//61 559//61 561//62
f 561//62 559//61 562//62
f 561//62 562//62 563//63
f 562//62 564//63 563//63
f 563//63 564//63 565//64
f 563//63 565//64 566//64
f 566//64 565//64 567//65
f 566//64 567//65 568//65
f 568//65 567//65 569//66
f 568//65 569//66 570//66
f 570//66 569//66 571//67
f 570//66 571//67 572//67
f 572//67 571//67 337//68
f 572//67 337//68 338//69
f 573//25 574//26 575//26
f 575//26 574//26 576//27
f 575//26 576//27 577//27
f 577//27 576//27 232//70
f 577//27 232//70 231//70
f 578//59 579//71 580//21
f 580//21 579//71 581//21
f 580//21 581//21 582//20
f 582//20 581//21 583//20
f 582//20 583//20 584//23
f 584//23 583//20 585//23
f 584//23 585//23 586//22
f 586//22 585//23 587//22
f 586//22 587//22 588//24
f 588//24 587//22 589//24
f 588//24 589//24 573//25
f 573//25 589//24 590//25
f 573//25 590//25 574//26
f 591//43 9//72 11//72
f 28//72 26//72 592//43
f 591//43 11//72 593//44
f 593//44 11//72 16//72
f 593//44 16//72 14//72
f 594//44 595//45 596//36
f 596//36 597//45 594//44
f 594//44 597//45 593//44
f 594//44 593//44 592//43
f 592//43 593//44 14//72
f 592//43 14//72 28//72
f 595//45 598//36 596//36
f 596//36 598//36 599//37
f 596//36 599//37 600//37
f 600//37 599//37 601//38
f 600//37 601//38 602//38
f 602//38 601//38 603//39
f 602//38 603//39 604//39
f 604//39 603//39 605//40
f 604//39 605//40 606//40
f 606//40 605//40 233//9
f 606//40 233//9 234//9
f 607//73 17//74 19//74
f 32//74 30//74 608//73
f 607//73 19//74 609//75
f 609//75 19//74 24//74
f 609//75 24//74 22//74
f 610//76 611//77 612//75
f 612//75 611//77 609//75
f 612//75 609//75 608//73
f 608//73 609//75 22//74
f 608//73 22//74 32//74
f 613//76 614//78 615//79
f 612//75 616//77 610//76
f 610//76 616//77 613//76
f 610//76 613//76 617//78
f 617//78 613//76 615//79
f 614//78 618//79 615//79
f 615//79 618//79 619//80
f 615//79 619//80 620//80
f 620//80 619//80 621//81
f 620//80 621//81 622//81
f 622//81 621//81 341//9
f 622//81 341//9 342//9
f 623//82 624//83 625//83
f 625//83 624//83 626//84
f 627//85 628//86 629//86
f 336//68 335//68 630//87
f 336//68 630//87 631//87
f 631//87 630//87 632//88
f 631//87 632//88 633//88
f 633//88 632//88 634//89
f 633//88 634//89 635//89
f 627//85 629//86 634//89
f 634//89 629//86 636//85
f 634//89 636//85 635//89
f 626//84 624//83 628//86
f 628//86 624//83 637//84
f 628//86 637//84 629//86
f 638//82 29//74 31//74
f 638//82 31//74 625//83
f 31//74 21//74 625//83
f 625//83 21//74 23//74
f 625//83 23//74 623//82
f 623//82 23//74 20//74
f 623//82 20//74 18//7
f 639//82 640//83 641//83
f 642//84 643//86 644//86
f 644//86 643//86 645//85
f 364//68 363//68 646//87
f 364//68 646//87 647//87
f 647//87 646//87 648//88
f 647//87 648//88 649//88
f 649//88 648//88 650//89
f 649//88 650//89 651//89
f 645//85 643//86 650//89
f 650//89 643//86 652//85
f 650//89 652//85 651//89
f 642//84 644//86 640//83
f 640//83 644//86 653//84
f 640//83 653//84 641//83
f 654//82 25//74 27//74
f 654//82 27//74 641//83
f 27//74 13//74 641//83
f 641//83 13//74 15//74
f 641//83 15//74 639//82
f 639//82 15//74 12//74
f 639//82 12//74 10//7
f 655//28 203//59 205//59
f 211//59 656//28 212//59
f 212//59 656//28 657//29
f 212//59 657//29 205//59
f 655//28 205//59 658//29
f 658//29 205//59 657//29
f 658//29 657//29 659//30
f 659//30 657//29 660//30
f 659//30 660//30 661//32
f 661//32 660//30 662//32
f 661//32 662//32 663//31
f 663//31 662//32 664//31
f 663//31 664//31 665//35
f 664//31 666//35 665//35
f 665//35 666//35 667//34
f 665//35 667//34 668//34
f 668//34 667//34 669//33
f 668//34 669//33 670//33
f 670//33 669//33 365//68
f 670//33 365//68 366//11
f 671//24 672//25 673//25
f 673//25 672//25 674//26
f 673//25 674//26 675//26
f 675//26 674//26 676//27
f 675//26 676//27 677//27
f 677//27 676//27 340//9
f 677//27 340//9 339//9
f 673//25 678//24 671//24
f 671//24 678//24 679//22
f 671//24 679//22 680//22
f 680//22 679//22 681//23
f 680//22 681//23 682//23
f 682//23 681//23 683//20
f 682//23 683//20 684//20
f 685//21 217//59 219//59
f 228//8 686//21 229//59
f 229//59 686//21 684//20
f 229//59 684//20 219//59
f 219//59 684//20 683//20
f 219//59 683//20 685//21
f 344//9 343//90 687//91
f 344//9 687//91 688//91
f 688//91 687//91 689//92
f 688//91 689//92 690//92
f 690//92 689//92 691//93
f 690//92 691//93 692//93
f 692//93 691//93 349//12
f 692//93 349//12 350//12
f 348//94 347//95 693//96
f 693//96 347//95 694//97
f 693//96 694//97 695//98
f 696//99 697//100 698//101
f 698//101 697//100 695//98
f 698//101 695//98 699//102
f 699//102 695//98 694//97
f 353//42 354//103 700//104
f 700//104 354//103 701//105
f 700//104 701//105 696//99
f 696//99 701//105 702//106
f 696//99 702//106 697//100
f 352//103 351//107 703//108
f 352//103 703//108 704//109
f 704//109 703//108 705//110
f 704//109 705//110 706//111
f 706//111 705//110 707//112
f 707//112 705//110 708//113
f 707//112 708//113 709//114
f 710//115 357//13 358//116
f 708//113 711//117 709//114
f 709//114 711//117 710//115
f 709//114 710//115 712//118
f 712//118 710//115 358//116
f 356//13 355//13 713//119
f 356//13 713//119 714//119
f 714//119 713//119 715//120
f 714//119 715//120 716//120
f 716//120 715//120 717//121
f 716//120 717//121 718//121
f 718//121 717//121 361//54
f 718//121 361//54 362//11
f 375//15 377//15 719//122
f 375//15 719//122 720//122
f 720//122 719//122 721//123
f 720//122 721//123 722//123
f 722//123 721//123 723//124
f 722//123 723//124 724//124
f 724//124 723//124 374//68
f 724//124 374//68 372//11
f 387//9 389//9 725//125
f 387//9 725//125 726//126
f 726//126 725//125 727//127
f 726//126 727//127 728//128
f 728//128 727//127 729//129
f 728//128 729//129 730//130
f 730//130 729//129 386//16
f 730//130 386//16 384//131
f 383//16 385//16 731//132
f 731//132 385//16 732//132
f 731//132 732//132 733//133
f 382//59 380//8 734//134
f 734//134 380//8 735//134
f 734//134 735//134 736//135
f 736//135 735//134 737//135
f 736//135 737//135 738//136
f 738//136 737//135 739//136
f 738//136 739//136 733//133
f 733//133 739//136 740//133
f 733//133 740//133 731//132
f 379//59 381//59 741//137
f 741//137 381//59 742//137
f 741//137 742//137 743//138
f 744//139 378//15 376//15
f 742//137 745//138 743//138
f 743//138 745//138 746//140
f 743//138 746//140 747//140
f 747//140 746//140 748//141
f 747//140 748//141 749//141
f 749//141 748//141 744//139
f 749//141 744//139 750//139
f 750//139 744//139 376//15
f 469//142 49//142 751//142
f 587//142 585//142 480//142
f 484//142 752//142 482//142
f 482//142 752//142 576//142
f 338//142 460//142 572//142
f 572//142 460//142 474//142
f 428//142 18//142 223//142
f 223//142 18//142 17//142
f 49//142 114//142 751//142
f 751//142 114//142 43//142
f 751//142 43//142 753//142
f 753//142 43//142 42//142
f 576//142 574//142 482//142
f 482//142 574//142 590//142
f 482//142 590//142 480//142
f 480//142 590//142 589//142
f 480//142 589//142 587//142
f 223//142 342//142 340//142
f 42//142 476//142 753//142
f 753//142 476//142 478//142
f 753//142 478//142 581//142
f 581//142 478//142 480//142
f 581//142 480//142 583//142
f 583//142 480//142 585//142
f 611//142 610//142 223//142
f 223//142 610//142 617//142
f 223//142 617//142 615//142
f 204//142 364//142 647//142
f 563//142 566//142 473//142
f 473//142 566//142 568//142
f 473//142 568//142 474//142
f 474//142 568//142 570//142
f 474//142 570//142 572//142
f 563//142 473//142 561//142
f 561//142 473//142 471//142
f 561//142 471//142 560//142
f 593//142 597//142 538//142
f 539//142 9//142 391//142
f 391//142 9//142 392//142
f 510//142 522//142 18//142
f 18//142 522//142 368//142
f 466//142 464//142 338//142
f 338//142 464//142 462//142
f 338//142 462//142 460//142
f 647//142 649//142 204//142
f 204//142 649//142 651//142
f 204//142 651//142 652//142
f 652//142 643//142 204//142
f 204//142 643//142 642//142
f 204//142 642//142 640//142
f 469//142 751//142 471//142
f 471//142 751//142 558//142
f 471//142 558//142 560//142
f 615//142 620//142 223//142
f 223//142 620//142 622//142
f 223//142 622//142 342//142
f 492//142 495//142 336//142
f 336//142 495//142 496//142
f 661//142 663//142 366//142
f 366//142 663//142 665//142
f 366//142 665//142 670//142
f 670//142 665//142 668//142
f 640//142 639//142 204//142
f 204//142 639//142 10//142
f 204//142 10//142 443//142
f 443//142 10//142 9//142
f 443//142 9//142 444//142
f 17//142 607//142 223//142
f 223//142 607//142 609//142
f 223//142 609//142 611//142
f 671//142 340//142 672//142
f 672//142 340//142 676//142
f 672//142 676//142 674//142
f 484//142 486//142 752//142
f 752//142 486//142 488//142
f 752//142 488//142 490//142
f 392//142 9//142 538//142
f 538//142 9//142 591//142
f 538//142 591//142 593//142
f 636//142 629//142 491//142
f 491//142 629//142 637//142
f 491//142 637//142 624//142
f 336//142 631//142 492//142
f 492//142 631//142 633//142
f 492//142 633//142 491//142
f 491//142 633//142 635//142
f 491//142 635//142 636//142
f 496//142 501//142 336//142
f 336//142 501//142 499//142
f 336//142 499//142 504//142
f 655//142 658//142 366//142
f 366//142 658//142 659//142
f 366//142 659//142 661//142
f 671//142 680//142 340//142
f 340//142 680//142 682//142
f 340//142 682//142 684//142
f 531//142 533//142 754//142
f 754//142 533//142 534//142
f 534//142 525//142 754//142
f 754//142 525//142 524//142
f 754//142 524//142 606//142
f 606//142 524//142 535//142
f 606//142 535//142 604//142
f 597//142 596//142 538//142
f 538//142 596//142 600//142
f 538//142 600//142 535//142
f 535//142 600//142 602//142
f 535//142 602//142 604//142
f 512//142 428//142 514//142
f 514//142 428//142 427//142
f 514//142 427//142 430//142
f 368//142 367//142 18//142
f 18//142 367//142 491//142
f 18//142 491//142 623//142
f 623//142 491//142 624//142
f 364//142 204//142 366//142
f 366//142 204//142 203//142
f 366//142 203//142 655//142
f 684//142 686//142 340//142
f 340//142 686//142 228//142
f 340//142 228//142 223//142
f 504//142 506//142 336//142
f 336//142 506//142 424//142
f 336//142 424//142 338//142
f 338//142 424//142 423//142
f 338//142 423//142 466//142
f 490//142 396//142 752//142
f 752//142 396//142 395//142
f 752//142 395//142 754//142
f 754//142 395//142 529//142
f 754//142 529//142 531//142
f 430//142 429//142 514//142
f 514//142 429//142 437//142
f 514//142 437//142 435//142
f 453//142 539//142 540//142
f 512//142 511//142 428//142
f 428//142 511//142 518//142
f 428//142 518//142 18//142
f 18//142 518//142 521//142
f 18//142 521//142 510//142
f 435//142 440//142 514//142
f 514//142 440//142 442//142
f 514//142 442//142 516//142
f 456//142 449//142 9//142
f 9//142 449//142 457//142
f 9//142 457//142 444//142
f 540//142 543//142 453//142
f 453//142 543//142 544//142
f 453//142 544//142 549//142
f 747//142 702//142 743//142
f 743//142 702//142 701//142
f 549//142 547//142 453//142
f 453//142 547//142 552//142
f 453//142 552//142 554//142
f 539//142 453//142 9//142
f 9//142 453//142 455//142
f 9//142 455//142 456//142
f 706//142 737//142 704//142
f 704//142 737//142 735//142
f 704//142 735//142 352//142
f 352//142 735//142 380//142
f 352//142 380//142 354//142
f 354//142 380//142 379//142
f 354//142 379//142 701//142
f 701//142 379//142 741//142
f 701//142 741//142 743//142
f 747//142 749//142 702//142
f 702//142 749//142 750//142
f 702//142 750//142 697//142
f 697//142 750//142 376//142
f 697//142 376//142 695//142
f 356//142 714//142 728//142
f 731//142 740//142 706//142
f 706//142 740//142 739//142
f 706//142 739//142 737//142
f 731//142 706//142 383//142
f 383//142 706//142 707//142
f 383//142 707//142 709//142
f 728//142 714//142 726//142
f 726//142 714//142 716//142
f 726//142 716//142 387//142
f 516//142 442//142 371//142
f 371//142 442//142 346//142
f 371//142 346//142 372//142
f 350//142 348//142 376//142
f 376//142 348//142 693//142
f 376//142 693//142 695//142
f 346//142 344//142 372//142
f 372//142 344//142 688//142
f 372//142 688//142 724//142
f 724//142 688//142 690//142
f 724//142 690//142 722//142
f 722//142 690//142 692//142
f 722//142 692//142 720//142
f 720//142 692//142 350//142
f 720//142 350//142 375//142
f 375//142 350//142 376//142
f 716//142 718//142 387//142
f 387//142 718//142 362//142
f 387//142 362//142 388//142
f 388//142 362//142 360//142
f 388//142 360//142 554//142
f 554//142 360//142 451//142
f 554//142 451//142 453//142
f 709//142 712//142 383//142
f 383//142 712//142 358//142
f 383//142 358//142 384//142
f 384//142 358//142 356//142
f 384//142 356//142 730//142
f 730//142 356//142 728//142
f 507//143 29//143 370//143
f 370//143 29//143 369//143
f 755//143 483//143 577//143
f 577//143 483//143 481//143
f 459//143 461//143 337//143
f 626//143 628//143 493//143
f 26//143 541//143 393//143
f 461//143 463//143 337//143
f 337//143 463//143 465//143
f 337//143 465//143 467//143
f 626//143 493//143 625//143
f 628//143 627//143 493//143
f 493//143 627//143 634//143
f 493//143 634//143 494//143
f 541//143 26//143 542//143
f 598//143 595//143 523//143
f 523//143 595//143 594//143
f 489//143 487//143 755//143
f 755//143 487//143 485//143
f 755//143 485//143 483//143
f 503//143 502//143 335//143
f 335//143 502//143 498//143
f 498//143 497//143 335//143
f 335//143 497//143 500//143
f 335//143 500//143 630//143
f 630//143 500//143 494//143
f 630//143 494//143 632//143
f 632//143 494//143 634//143
f 458//143 26//143 209//143
f 209//143 26//143 25//143
f 393//143 394//143 26//143
f 26//143 394//143 523//143
f 26//143 523//143 592//143
f 592//143 523//143 594//143
f 337//143 571//143 459//143
f 459//143 571//143 569//143
f 459//143 569//143 472//143
f 472//143 569//143 567//143
f 567//143 565//143 472//143
f 472//143 565//143 564//143
f 472//143 564//143 470//143
f 470//143 564//143 562//143
f 470//143 562//143 559//143
f 369//143 29//143 493//143
f 493//143 29//143 638//143
f 493//143 638//143 625//143
f 209//143 363//143 365//143
f 605//143 537//143 756//143
f 756//143 537//143 536//143
f 756//143 536//143 526//143
f 605//143 603//143 537//143
f 537//143 603//143 601//143
f 537//143 601//143 523//143
f 523//143 601//143 599//143
f 523//143 599//143 598//143
f 526//143 527//143 756//143
f 756//143 527//143 532//143
f 756//143 532//143 530//143
f 479//143 584//143 586//143
f 475//143 757//143 477//143
f 477//143 757//143 580//143
f 477//143 580//143 479//143
f 479//143 580//143 582//143
f 479//143 582//143 584//143
f 60//143 468//143 758//143
f 758//143 468//143 470//143
f 758//143 470//143 557//143
f 557//143 470//143 559//143
f 467//143 425//143 337//143
f 337//143 425//143 426//143
f 337//143 426//143 335//143
f 335//143 426//143 505//143
f 335//143 505//143 503//143
f 653//143 644//143 209//143
f 209//143 644//143 645//143
f 209//143 645//143 650//143
f 439//143 507//143 509//143
f 433//143 436//143 29//143
f 218//143 341//143 621//143
f 586//143 588//143 479//143
f 479//143 588//143 573//143
f 479//143 573//143 481//143
f 481//143 573//143 575//143
f 481//143 575//143 577//143
f 475//143 57//143 757//143
f 757//143 57//143 68//143
f 757//143 68//143 758//143
f 758//143 68//143 75//143
f 758//143 75//143 60//143
f 433//143 29//143 434//143
f 621//143 619//143 218//143
f 218//143 619//143 618//143
f 218//143 618//143 614//143
f 614//143 613//143 218//143
f 218//143 613//143 616//143
f 218//143 616//143 612//143
f 530//143 528//143 756//143
f 756//143 528//143 397//143
f 756//143 397//143 755//143
f 755//143 397//143 398//143
f 755//143 398//143 489//143
f 650//143 648//143 209//143
f 209//143 648//143 646//143
f 209//143 646//143 363//143
f 439//143 509//143 441//143
f 441//143 509//143 508//143
f 441//143 508//143 520//143
f 691//143 689//143 515//143
f 515//143 689//143 687//143
f 550//143 458//143 551//143
f 551//143 458//143 445//143
f 507//143 439//143 29//143
f 29//143 439//143 438//143
f 29//143 438//143 434//143
f 679//143 678//143 339//143
f 339//143 678//143 673//143
f 339//143 673//143 677//143
f 677//143 673//143 675//143
f 436//143 431//143 29//143
f 29//143 431//143 432//143
f 29//143 432//143 30//143
f 30//143 432//143 218//143
f 30//143 218//143 608//143
f 608//143 218//143 612//143
f 25//143 654//143 209//143
f 209//143 654//143 641//143
f 209//143 641//143 653//143
f 664//143 365//143 666//143
f 666//143 365//143 669//143
f 666//143 669//143 667//143
f 685//143 683//143 339//143
f 339//143 683//143 681//143
f 339//143 681//143 679//143
f 664//143 662//143 365//143
f 365//143 662//143 660//143
f 365//143 660//143 657//143
f 520//143 519//143 441//143
f 441//143 519//143 513//143
f 441//143 513//143 345//143
f 345//143 513//143 515//143
f 345//143 515//143 343//143
f 343//143 515//143 687//143
f 445//143 446//143 551//143
f 551//143 446//143 448//143
f 551//143 448//143 447//143
f 550//143 546//143 458//143
f 458//143 546//143 545//143
f 458//143 545//143 26//143
f 26//143 545//143 548//143
f 26//143 548//143 542//143
f 341//143 218//143 339//143
f 339//143 218//143 217//143
f 339//143 217//143 685//143
f 657//143 656//143 365//143
f 365//143 656//143 211//143
f 365//143 211//143 209//143
f 738//143 705//143 736//143
f 736//143 705//143 703//143
f 748//143 746//143 696//143
f 696//143 746//143 745//143
f 696//143 745//143 700//143
f 700//143 745//143 742//143
f 700//143 742//143 353//143
f 353//143 742//143 381//143
f 353//143 381//143 351//143
f 351//143 381//143 382//143
f 351//143 382//143 703//143
f 703//143 382//143 734//143
f 703//143 734//143 736//143
f 378//143 698//143 699//143
f 698//143 378//143 696//143
f 696//143 378//143 744//143
f 696//143 744//143 748//143
f 738//143 733//143 705//143
f 705//143 733//143 732//143
f 705//143 732//143 708//143
f 708//143 732//143 385//143
f 708//143 385//143 711//143
f 699//143 694//143 378//143
f 378//143 694//143 347//143
f 378//143 347//143 377//143
f 377//143 347//143 349//143
f 515//143 517//143 691//143
f 691//143 517//143 373//143
f 691//143 373//143 374//143
f 447//143 454//143 551//143
f 551//143 454//143 452//143
f 551//143 452//143 553//143
f 553//143 452//143 450//143
f 553//143 450//143 390//143
f 390//143 450//143 359//143
f 390//143 359//143 389//143
f 374//143 723//143 691//143
f 691//143 723//143 721//143
f 691//143 721//143 349//143
f 349//143 721//143 719//143
f 349//143 719//143 377//143
f 355//143 357//143 385//143
f 385//143 357//143 710//143
f 385//143 710//143 711//143
f 359//143 361//143 389//143
f 389//143 361//143 717//143
f 389//143 717//143 725//143
f 725//143 717//143 715//143
f 725//143 715//143 727//143
f 727//143 715//143 713//143
f 727//143 713//143 729//143
f 729//143 713//143 355//143
f 729//143 355//143 386//143
f 386//143 355//143 385//143
f 759//144 173//144 760//145
f 760//145 173//144 174//145
f 760//145 174//145 761//146
f 761//146 174//145 175//146
f 761//146 175//146 762//147
f 762//147 175//146 176//147
f 762//147 176//147 763//148
f 763//148 176//147 177//148
f 763//148 177//148 764//149
f 764//149 177//148 178//149
f 764//149 178//149 765//150
f 765//150 178//149 155//150
f 765//150 155//150 766//151
f 766//151 155//150 156//151
f 766//151 156//151 767//152
f 767//152 156//151 157//152
f 767//152 157//152 768//153
f 768//153 157//152 158//153
f 768//153 158//153 769//154
f 769//154 158//153 159//154
f 769//154 159//154 770//155
f 770//155 159//154 160//155
f 770//155 160//155 771//156
f 771//156 160//155 161//156
f 771//156 161//156 772//157
f 772//157 161//156 162//157
f 772//157 162//157 773//158
f 773//158 162//157 163//158
f 773//158 163//158 774//159
f 774//159 163//158 164//159
f 774//159 164//159 775//160
f 775//160 164//159 165//160
f 775//160 165//160 776//161
f 776//161 165//160 166//161
f 776//161 166//161 777//162
f 777//162 166//161 167//162
f 777//162 167//162 778//163
f 778//163 167//162 168//163
f 778//163 168//163 779//164
f 779//164 168//163 169//164
f 779//164 169//164 780//165
f 780//165 169//164 170//165
f 780//165 170//165 781//166
f 781//166 170//165 171//166
f 781//166 171//166 782//167
f 782//167 171//166 172//167
f 782//167 172//167 759//144
f 759//144 172//167 173//144
f 783//144 413//144 784//145
f 784//145 413//144 412//145
f 784//145 412//145 785//146
f 785//146 412//145 411//146
f 785//146 411//146 786//147
f 786//147 411//146 410//147
f 786//147 410//147 787//148
f 787//148 410//147 409//148
f 787//148 409//148 788//149
f 788//149 409//148 408//149
f 788//149 408//149 789//150
f 789//150 408//149 407//150
f 789//150 407//150 790//151
f 790//151 407//150 406//151
f 790//151 406//151 791//152
f 791//152 406//151 405//152
f 791//152 405//152 792//153
f 792//153 405//152 404//153
f 792//153 404//153 793//154
f 793//154 404//153 403//154
f 793//154 403//154 794//155
f 794//155 403//154 402//155
f 794//155 402//155 795//156
f 795//156 402//155 401//156
f 795//156 401//156 796//157
f 796//157 401//156 400//157
f 796//157 400//157 797//158
f 797//158 400//157 399//158
f 797//158 399//158 798//159
f 798//159 399//158 422//159
f 798//159 422//159 799//160
f 799//160 422//159 421//160
f 799//160 421//160 800//161
f 800//161 421//160 420//161
f 800//161 420//161 801//168
f 801//168 420//161 419//168
f 801//168 419//168 802//163
f 802//163 419//168 418//163
f 802//163 418//163 803//164
f 803//164 418//163 417//164
f 803//164 417//164 804//165
f 804//165 417//164 416//165
f 804//165 416//165 805//166
f 805//166 416//165 415//166
f 805//166 415//166 806//167
f 806//167 415//166 414//167
f 806//167 414//167 783//144
f 783//144 414//167 413//144
f 807//144 197//144 808//145
f 808//145 197//144 198//145
f 808//145 198//145 809//146
f 809//146 198//145 199//146
f 809//146 199//146 810//147
f 810//147 199//146 200//147
f 810//147 200//147 811//148
f 811//148 200//147 201//148
f 811//148 201//148 812//149
f 812//149 201//148 202//149
f 812//149 202//149 813//150
f 813//150 202//149 179//150
f 813//150 179//150 814//151
f 814//151 179//150 180//151
f 814//151 180//151 815//152
f 815//152 180//151 181//152
f 815//152 181//152 816//153
f 816//153 181//152 182//153
f 816//153 182//153 817//154
f 817//154 182//153 183//154
f 817//154 183//154 818//155
f 818//155 183//154 184//155
f 818//155 184//155 819//156
f 819//156 184//155 185//156
f 819//156 185//156 820//157
f 820//157 185//156 186//157
f 820//157 186//157 821//158
f 821//158 186//157 187//158
f 821//158 187//158 822//159
f 822//159 187//158 188//159
f 822//159 188//159 823//160
f 823//160 188//159 189//160
f 823//160 189//160 824//161
f 824//161 189//160 190//161
f 824//161 190//161 825//168
f 825//168 190//161 191//168
f 825//168 191//168 826//163
f 826//163 191//168 192//163
f 826//163 192//163 827//164
f 827//164 192//163 193//164
f 827//164 193//164 828//165
f 828//165 193//164 194//165
f 828//165 194//165 829//166
f 829//166 194//165 195//166
f 829//166 195//166 830//167
f 830//167 195//166 196//167
f 830//167 196//167 807//144
f 807//144 196//167 197//144
f 831//144 133//144 832//145
f 832//145 133//144 132//145
f 832//145 132//145 833//146
f 833//146 132//145 131//146
f 833//146 131//146 834//147
f 834//147 131//146 154//147
f 834//147 154//147 835//148
f 835//148 154//147 153//148
f 835//148 153//148 836//149
f 836//149 153//148 152//149
f 836//149 152//149 837//150
f 837//150 152//149 151//150
f 837//150 151//150 838//151
f 838//151 151//150 150//151
f 838//151 150//151 839//152
f 839//152 150//151 149//152
f 839//152 149//152 840//153
f 840//153 149//152 148//153
f 840//153 148//153 841//154
f 841//154 148//153 147//154
f 841//154 147//154 842//155
f 842//155 147//154 146//155
f 842//155 146//155 843//156
f 843//156 146//155 145//156
f 843//156 145//156 844//157
f 844//157 145//156 144//157
f 844//157 144//157 845//158
f 845//158 144//157 143//158
f 845//158 143//158 846//159
f 846//159 143//158 142//159
f 846//159 142//159 847//160
f 847//160 142//159 141//160
f 847//160 141//160 848//161
f 848//161 141//160 140//161
f 848//161 140//161 849//162
f 849//162 140//161 139//162
f 849//162 139//162 850//163
f 850//163 139//162 138//163
f 850//163 138//163 851//164
f 851//164 138//163 137//164
f 851//164 137//164 852//165
f 852//165 137//164 136//165
f 852//165 136//165 853//166
f 853//166 136//165 135//166
f 853//166 135//166 854//167
f 854//167 135//166 134//167
f 854//167 134//167 831//144
f 831//144 134//167 133//144
# Vertices: 846, normals: 162, texture coordinates: 0, faces: 1492

o obj3
v 0.71804953 0.89971273 1.22985668
v 0.71804953 0.89971273 1.32985668
v 0.71804953 0.89654273 1.22985668
v 0.71804953 0.89654273 1.32985668
v 0.69899953 0.89971273 1.22985668
v 0.69899953 0.89654273 1.22985668
v 0.69899953 0.89971273 1.32985668
v 0.69899953 0.89654273 1.32985668
vn 1 0 -0
vn 0 0 -1
vn -1 0 0
vn 0 0 1
vn 0 1 0
vn 0 -1 0
usemtl mat0
f 855//169 856//169 857//169
f 857//169 856//169 858//169
f 859//170 855//170 860//170
f 860//170 855//170 857//170
f 861//171 859//171 862//171
f 862//171 859//171 860//171
f 856//172 861//172 858//172
f 858//172 861//172 862//172
f 859//173 861//173 855//173
f 855//173 861//173 856//173
f 862//174 860//174 858//174
f 858//174 860//174 857//174
# Vertices: 8, normals: 6, texture coordinates: 0, faces: 12

